<?xml version="1.0" encoding="utf-8"?><svg xmlns="http://www.w3.org/2000/svg" xmlns:xlink="http://www.w3.org/1999/xlink" width="1917" height="295" preserveAspectRatio="xMidYMid" viewBox="0 0 1917 295" style="z-index:1;margin-right:-2px;display:block;background-repeat-y:initial;background-repeat-x:initial;animation-play-state:paused" ><g transform="translate(958.5,147.5) scale(1,-1) translate(-958.5,-147.5)" style="transform:matrix(1, 0, 0, -1, 0, 295);animation-play-state:paused" ><linearGradient id="lg-0.47656846748147674" x1="0" x2="1" y1="0" y2="0" style="animation-play-state:paused" ><stop stop-color="#ff00ff" offset="0" style="animation-play-state:paused" ></stop>

  
<stop stop-color="#00ffff" offset="1" style="animation-play-state:paused" ></stop></linearGradient>
<path d="M 0 0 L 0 248.942 Q 159.75 300.573 319.5 276.676 T 639 241.667 T 958.5 235.75 T 1278 159.373 T 1597.5 101.984 T 1917 179.046 L 1917 0 Z" fill="url(#lg-0.47656846748147674)" opacity="0.4" style="opacity:0.4;animation-play-state:paused" ></path>
<path d="M 0 0 L 0 317.692 Q 159.75 274.83 319.5 231.373 T 639 193.514 T 958.5 179.789 T 1278 135.913 T 1597.5 172.516 T 1917 159.109 L 1917 0 Z" fill="url(#lg-0.47656846748147674)" opacity="0.4" style="opacity:0.4;animation-play-state:paused" ></path>
<path d="M 0 0 L 0 199.021 Q 159.75 257.678 319.5 218.96 T 639 247.633 T 958.5 188.386 T 1278 200.141 T 1597.5 205.523 T 1917 203.39 L 1917 0 Z" fill="url(#lg-0.47656846748147674)" opacity="0.4" style="opacity:0.4;animation-play-state:paused" ></path>
<path d="M 0 0 L 0 270.781 Q 159.75 210.363 319.5 189.425 T 639 212.944 T 958.5 205.97 T 1278 186.813 T 1597.5 127.327 T 1917 174.625 L 1917 0 Z" fill="url(#lg-0.47656846748147674)" opacity="0.4" style="opacity:0.4;animation-play-state:paused" ></path>
<path d="M 0 0 L 0 211.526 Q 159.75 275.709 319.5 252.739 T 639 266.505 T 958.5 197.137 T 1278 152.086 T 1597.5 175.251 T 1917 120.088 L 1917 0 Z" fill="url(#lg-0.47656846748147674)" opacity="0.4" style="opacity:0.4;animation-play-state:paused" ></path>
<path d="M 0 0 L 0 186.435 Q 159.75 268.22 319.5 235.907 T 639 183.109 T 958.5 146.264 T 1278 141.285 T 1597.5 113.709 T 1917 178.479 L 1917 0 Z" fill="url(#lg-0.47656846748147674)" opacity="0.4" style="opacity:0.4;animation-play-state:paused" ></path>
<path d="M 0 0 L 0 197.601 Q 159.75 280.159 319.5 258.876 T 639 259.892 T 958.5 218.781 T 1278 154.061 T 1597.5 177.703 T 1917 198.244 L 1917 0 Z" fill="url(#lg-0.47656846748147674)" opacity="0.4" style="opacity:0.4;animation-play-state:paused" ></path></g></svg>